<svg enable-background="new 0 0 512 512" viewBox="0 0 512 512" xmlns="http://www.w3.org/2000/svg"><path d="m478.685 36h-446.685c-2.485 0-4.5 2.015-4.5 4.5s2.015 4.5 4.5 4.5h107v101h-107c-2.485 0-4.5 2.015-4.5 4.5s2.015 4.5 4.5 4.5h107v102h-107c-2.485 0-4.5 2.015-4.5 4.5s2.015 4.5 4.5 4.5h107v101h-107c-2.485 0-4.5 2.015-4.5 4.5s2.015 4.5 4.5 4.5h107v110.685c0 2.485 2.015 4.5 4.5 4.5s4.5-2.015 4.5-4.5v-110.685h103v110.685c0 2.485 2.015 4.5 4.5 4.5s4.5-2.015 4.5-4.5v-110.685h103v110.685c0 2.485 2.015 4.5 4.5 4.5s4.5-2.015 4.5-4.5v-110.685h102v110.685c0 2.485 2.015 4.5 4.5 4.5s4.5-2.015 4.5-4.5v-446.685c0-2.485-1.83-4-4.315-4zm-115.685 110h-103v-101h103zm9-101h102v101h-102zm-9 110v102h-103v-102zm9 0h102v102h-102zm-224-110h103v101h-103zm0 110h103v102h-103zm0 212v-101h103v101zm112 0v-101h103v101zm112 0v-101h102v101z" fill="#dce2e2"/><path d="m279.047 441.203c-.117 0-.234-.002-.353-.005-4.373-.129-8.329-2.626-10.326-6.519l-101.395-197.675-117.723 142.454c-4.222 5.108-11.786 5.828-16.894 1.605-5.109-4.222-5.828-11.785-1.606-16.895l129.332-156.501c2.571-3.112 6.531-4.726 10.547-4.286 4.013.437 7.538 2.861 9.38 6.453l99.766 194.497 188.572-319.952c3.365-5.708 10.721-7.611 16.431-4.245 5.71 3.365 7.61 10.721 4.245 16.431l-199.639 338.731c-2.161 3.667-6.098 5.907-10.337 5.907z" fill="#ff473e"/><path d="m478.685 489.418h-446.685c-3.866 0-7-3.134-7-7v-442.418c0-3.866 3.134-7 7-7s7 3.134 7 7v435.418h439.685c3.866 0 7 3.134 7 7s-3.134 7-7 7z" fill="#b9c5c6"/></svg>